<svg width="32" height="33" viewBox="0 0 32 33" fill="none" xmlns="http://www.w3.org/2000/svg">
<rect x="0.5" y="1.0647" width="31" height="31" rx="1.5" fill="white" stroke="black"/>
<path d="M11.7059 20.9028L11.6099 25.6068L14.2979 25.8628C14.2979 26.4602 14.1165 27.1002 13.7539 27.7828H6.39388L6.29788 26.6628C7.30055 26.3215 8.28188 26.0655 9.24188 25.8948C9.02855 17.6175 8.85788 11.4095 8.72988 7.27084C7.94055 7.1215 6.99121 6.8655 5.88188 6.50284L5.97788 5.38284H13.9779C14.3405 6.0655 14.5219 6.7055 14.5219 7.30284C13.4552 7.38817 12.6019 7.43084 11.9619 7.43084C11.9192 9.6495 11.8765 11.6548 11.8339 13.4468C11.8125 15.2388 11.7912 16.4975 11.7699 17.2228L19.4179 7.55884L16.8579 7.30284C16.8579 6.7055 17.0392 6.0655 17.4019 5.38284H25.5299L25.6259 6.79084C24.6445 7.13217 23.6845 7.38817 22.7459 7.55884L16.4419 15.1428L23.8019 25.6068L26.4899 25.8628C26.4899 26.4602 26.3085 27.1002 25.9459 27.7828H21.9459L14.6819 17.3188L11.7059 20.9028Z" fill="#16E131"/>
<path d="M14.6473 5.07595C17.3567 5.07595 19.362 5.52395 20.6633 6.41995C21.986 7.29462 22.6473 8.85195 22.6473 11.092C22.6473 13.332 21.9967 15.1133 20.6953 16.436C19.394 17.7373 17.2927 18.388 14.3913 18.388H11.7033L11.6073 25.332L14.1033 25.556C14.1033 26.1533 13.922 26.7933 13.5593 27.476H6.35933L6.26333 26.388C7.15933 26.0466 8.07666 25.7906 9.01533 25.62C8.88733 17.3 8.78066 11.1133 8.69533 7.05995C8.11933 6.95329 7.18066 6.69728 5.87933 6.29195L6.03933 5.07595H14.6473ZM14.0713 16.308C15.906 16.2866 17.3033 15.828 18.2633 14.932C19.2233 14.0146 19.7033 12.8093 19.7033 11.316C19.7033 9.82262 19.234 8.78795 18.2953 8.21195C17.3567 7.61462 15.8527 7.31595 13.7833 7.31595C13.3993 7.31595 12.7487 7.32662 11.8313 7.34795C11.8313 7.36928 11.7993 10.3666 11.7353 16.34L14.0713 16.308Z" fill="#1627E1"/>
</svg>
